<svg version="1.1" id="Layer_1" xmlns="http://www.w3.org/2000/svg" xmlns:xlink="http://www.w3.org/1999/xlink" x="0px" y="0px"
	 width="100%" viewBox="0 0 188 256" enable-background="new 0 0 188 256" xml:space="preserve">
<path fill="#FFFFFF" opacity="1.000000" stroke="none" 
	d="
M189.000000,239.000000 
	C189.000000,244.993988 189.000000,250.987976 189.000000,256.986450 
	C126.402122,256.990967 63.804237,256.990967 1.000000,256.990967 
	C1.000000,180.312561 1.000000,103.624939 1.338132,26.596329 
	C4.749953,34.884937 11.546459,39.903122 21.070242,39.955917 
	C45.061184,40.088917 69.057571,40.230167 93.041191,39.790653 
	C97.430550,39.710217 101.776283,36.922043 106.129654,35.349167 
	C108.179962,34.608398 110.194305,33.122993 112.235733,33.103493 
	C130.727615,32.926853 149.221939,33.019077 167.715469,32.991570 
	C176.392014,32.978664 181.934143,27.845430 182.053802,20.277250 
	C182.150192,14.180490 176.077194,7.644579 167.901642,7.852346 
	C149.419998,8.322024 130.918213,8.011237 112.424683,7.978246 
	C110.973984,7.975658 109.346924,8.030329 108.105820,7.429969 
	C103.995537,5.441712 100.024475,3.165640 96.000000,0.999999 
	C126.958488,1.000000 157.916977,1.000000 189.000000,1.000000 
	C189.000000,78.687515 189.000000,156.375107 188.646393,234.381866 
	C186.783508,224.040436 179.408508,218.094818 168.699982,218.038864 
	C144.869522,217.914337 121.037857,218.043671 97.207008,217.967056 
	C91.748497,217.949509 87.055069,219.642136 82.622894,222.749084 
	C80.901215,223.955978 78.563232,224.886322 76.496811,224.904602 
	C58.000000,225.068207 39.500938,224.954224 21.003019,225.033875 
	C16.658062,225.052567 12.458935,225.897156 9.991242,230.098206 
	C4.381973,239.647552 10.254265,249.888641 21.529055,249.966568 
	C39.526505,250.090973 57.525558,250.033112 75.523651,249.971588 
	C79.057083,249.959503 82.035255,250.206436 84.943619,253.059311 
	C86.882004,254.960724 90.560249,255.855240 93.470551,255.878922 
	C119.133110,256.087677 144.798340,255.934402 170.462143,256.042419 
	C177.588730,256.072418 182.603455,252.853317 185.949234,246.897995 
	C187.317413,244.462662 188.003555,241.644165 189.000000,239.000000 
M64.036125,86.812416 
	C67.581474,83.236038 70.665077,78.966087 74.771385,76.232292 
	C82.552460,71.051994 91.765747,71.251511 100.581192,72.189369 
	C108.981926,73.083099 117.095665,76.050987 121.350441,84.077751 
	C124.014046,89.102730 126.404633,94.850868 126.750130,100.409271 
	C127.540421,113.123596 126.999977,125.920647 126.999977,138.654419 
	C134.329147,138.654419 141.052414,138.654419 148.000000,138.654419 
	C148.000000,124.999039 148.008652,111.688004 147.997818,98.376991 
	C147.984100,81.530334 140.503891,68.723846 127.022217,58.969376 
	C112.687981,48.598053 95.926102,49.155479 80.346924,51.526352 
	C54.979000,55.386898 40.406368,73.122375 39.281593,97.997086 
	C38.278149,120.188560 39.363132,142.498169 40.098545,164.736740 
	C40.643013,181.201462 54.608578,198.580200 70.543304,204.008026 
	C84.045502,208.607269 97.894615,208.111969 111.501244,205.558517 
	C123.081429,203.385315 132.066833,196.102936 139.428650,187.003937 
	C140.808273,185.298767 141.776413,183.260910 139.125412,181.650238 
	C133.895645,178.472809 128.648117,175.324661 123.320839,172.111877 
	C121.782349,173.761871 120.635567,175.523666 119.031334,176.609818 
	C114.689842,179.549225 110.450752,183.603409 105.622757,184.625504 
	C99.063713,186.014053 91.990387,185.169632 85.146439,184.974213 
	C71.836395,184.594147 60.648727,171.018753 60.906921,157.766098 
	C61.273525,138.948669 60.816898,120.115715 61.131302,101.296402 
	C61.207996,96.705772 62.917259,92.142418 64.036125,86.812416 
M169.999283,170.206299 
	C169.999283,167.986679 169.999283,165.767075 169.999283,164.604523 
	C172.812866,164.443802 175.513000,165.022736 177.149872,163.961578 
	C178.434341,163.128845 179.234604,158.776352 178.824387,158.547943 
	C175.948227,156.946518 172.701675,156.010315 168.763947,154.563965 
	C167.416809,151.837799 165.661377,147.957077 163.579376,144.260269 
	C162.903214,143.059677 161.372803,142.340179 160.233109,141.400635 
	C160.164871,142.984680 159.619736,144.750473 160.138184,146.110947 
	C160.952133,148.246811 162.367935,149.889755 159.626221,151.815109 
	C153.787506,155.915359 151.748001,166.664536 155.338577,173.786530 
	C160.086243,170.889725 157.789001,166.251099 157.841766,162.518204 
	C157.906082,157.968857 159.823853,155.624268 164.538498,154.109909 
	C165.058258,156.488785 165.787659,158.625854 165.939743,160.803238 
	C166.171204,164.117050 165.854691,167.469299 166.089401,170.782654 
	C166.164886,171.848648 167.245438,172.843475 167.866180,173.870850 
	C168.575531,172.933731 169.284882,171.996597 169.999283,170.206299 
M143.581024,172.976440 
	C145.077530,172.981766 146.610779,173.187927 148.057846,172.923096 
	C149.053802,172.740814 149.930267,171.905594 150.860138,171.362213 
	C149.999146,170.577896 149.213409,169.677261 148.248795,169.053085 
	C147.674042,168.681198 146.818329,168.743530 145.837280,168.564819 
	C145.837280,161.276855 145.837280,154.346283 145.837280,146.994186 
	C141.427185,146.994186 137.337799,146.994186 133.522400,146.994186 
	C132.968414,144.716858 132.529282,142.911636 132.090149,141.106415 
	C131.525864,141.128647 130.961578,141.150879 130.397293,141.173126 
	C130.227386,143.956223 130.057465,146.739319 129.879120,149.660263 
	C131.339218,149.886246 132.409256,150.051865 133.523361,150.224304 
	C129.510284,157.200027 128.555588,169.705917 132.698792,174.902893 
	C133.603058,165.268936 130.694473,154.877197 142.000000,149.340530 
	C142.000000,152.200043 141.943832,154.142700 142.010620,156.081100 
	C142.203171,161.669220 142.445328,167.255615 143.581024,172.976440 
z"/>
<path fill="#12A19A" opacity="1.000000" stroke="none" 
	d="
M95.531342,0.999999 
	C100.024475,3.165640 103.995537,5.441712 108.105820,7.429969 
	C109.346924,8.030329 110.973984,7.975658 112.424683,7.978246 
	C130.918213,8.011237 149.419998,8.322024 167.901642,7.852346 
	C176.077194,7.644579 182.150192,14.180490 182.053802,20.277250 
	C181.934143,27.845430 176.392014,32.978664 167.715469,32.991570 
	C149.221939,33.019077 130.727615,32.926853 112.235733,33.103493 
	C110.194305,33.122993 108.179962,34.608398 106.129654,35.349167 
	C101.776283,36.922043 97.430550,39.710217 93.041191,39.790653 
	C69.057571,40.230167 45.061184,40.088917 21.070242,39.955917 
	C11.546459,39.903122 4.749953,34.884937 1.338132,26.127672 
	C1.000000,22.638712 1.000000,19.277426 1.338131,15.330397 
	C2.075535,13.707946 2.374941,12.618460 2.890367,11.643133 
	C6.114698,5.541813 11.588895,2.597471 18.000000,1.000000 
	C43.687561,1.000000 69.375122,1.000000 95.531342,0.999999 
M136.500000,10.000000 
	C127.860367,10.000000 119.220734,10.000000 110.118729,10.000000 
	C114.039391,17.062956 113.908150,23.950897 110.189491,30.999506 
	C130.149780,30.999506 149.616623,31.073444 169.082336,30.957657 
	C175.516174,30.919388 180.119980,26.127977 179.999649,20.171103 
	C179.881165,14.305481 175.023590,10.011786 168.452301,10.003473 
	C158.134888,9.990421 147.817429,10.000004 136.500000,10.000000 
z"/>
<path fill="#12A19A" opacity="1.000000" stroke="none" 
	d="
M189.000000,238.600006 
	C188.003555,241.644165 187.317413,244.462662 185.949234,246.897995 
	C182.603455,252.853317 177.588730,256.072418 170.462143,256.042419 
	C144.798340,255.934402 119.133110,256.087677 93.470551,255.878922 
	C90.560249,255.855240 86.882004,254.960724 84.943619,253.059311 
	C82.035255,250.206436 79.057083,249.959503 75.523651,249.971588 
	C57.525558,250.033112 39.526505,250.090973 21.529055,249.966568 
	C10.254265,249.888641 4.381973,239.647552 9.991242,230.098206 
	C12.458935,225.897156 16.658062,225.052567 21.003019,225.033875 
	C39.500938,224.954224 58.000000,225.068207 76.496811,224.904602 
	C78.563232,224.886322 80.901215,223.955978 82.622894,222.749084 
	C87.055069,219.642136 91.748497,217.949509 97.207008,217.967056 
	C121.037857,218.043671 144.869522,217.914337 168.699982,218.038864 
	C179.408508,218.094818 186.783508,224.040436 188.646393,234.850525 
	C189.000000,236.066666 189.000000,237.133347 189.000000,238.600006 
M15.157612,228.351593 
	C13.438568,230.890244 10.587722,233.275726 10.219481,235.997162 
	C9.240126,243.234985 14.113702,247.958481 21.699141,247.981842 
	C39.826832,248.037659 57.954819,248.003891 76.082664,247.986359 
	C76.991112,247.985474 77.899376,247.796371 77.936409,247.792236 
	C77.936409,240.581451 77.936409,233.836121 77.936409,227.000305 
	C58.716312,227.000305 39.427593,226.979202 20.139168,227.043915 
	C18.730656,227.048630 17.324230,227.674973 15.157612,228.351593 
z"/>
<path fill="#FFFFFF" opacity="1.000000" stroke="none" 
	d="
M17.529547,1.000000 
	C11.588895,2.597471 6.114698,5.541813 2.890367,11.643133 
	C2.374941,12.618460 2.075535,13.707946 1.338131,14.872328 
	C1.000000,10.400794 1.000000,5.801589 1.000000,1.000000 
	C6.351886,1.000000 11.705490,1.000000 17.529547,1.000000 
z"/>
<path fill="#12A19A" opacity="1.000000" stroke="none" 
	d="
M63.956009,87.189468 
	C62.917259,92.142418 61.207996,96.705772 61.131302,101.296402 
	C60.816898,120.115715 61.273525,138.948669 60.906921,157.766098 
	C60.648727,171.018753 71.836395,184.594147 85.146439,184.974213 
	C91.990387,185.169632 99.063713,186.014053 105.622757,184.625504 
	C110.450752,183.603409 114.689842,179.549225 119.031334,176.609818 
	C120.635567,175.523666 121.782349,173.761871 123.320839,172.111877 
	C128.648117,175.324661 133.895645,178.472809 139.125412,181.650238 
	C141.776413,183.260910 140.808273,185.298767 139.428650,187.003937 
	C132.066833,196.102936 123.081429,203.385315 111.501244,205.558517 
	C97.894615,208.111969 84.045502,208.607269 70.543304,204.008026 
	C54.608578,198.580200 40.643013,181.201462 40.098545,164.736740 
	C39.363132,142.498169 38.278149,120.188560 39.281593,97.997086 
	C40.406368,73.122375 54.979000,55.386898 80.346924,51.526352 
	C95.926102,49.155479 112.687981,48.598053 127.022217,58.969376 
	C140.503891,68.723846 147.984100,81.530334 147.997818,98.376991 
	C148.008652,111.688004 148.000000,124.999039 148.000000,138.654419 
	C141.052414,138.654419 134.329147,138.654419 126.999977,138.654419 
	C126.999977,125.920647 127.540421,113.123596 126.750130,100.409271 
	C126.404633,94.850868 124.014046,89.102730 121.350441,84.077751 
	C117.095665,76.050987 108.981926,73.083099 100.581192,72.189369 
	C91.765747,71.251511 82.552460,71.051994 74.771385,76.232292 
	C70.665077,78.966087 67.581474,83.236038 63.956009,87.189468 
z"/>
<path fill="#12A19A" opacity="1.000000" stroke="none" 
	d="
M169.996765,170.632874 
	C169.284882,171.996597 168.575531,172.933731 167.866180,173.870850 
	C167.245438,172.843475 166.164886,171.848648 166.089401,170.782654 
	C165.854691,167.469299 166.171204,164.117050 165.939743,160.803238 
	C165.787659,158.625854 165.058258,156.488785 164.538498,154.109909 
	C159.823853,155.624268 157.906082,157.968857 157.841766,162.518204 
	C157.789001,166.251099 160.086243,170.889725 155.338577,173.786530 
	C151.748001,166.664536 153.787506,155.915359 159.626221,151.815109 
	C162.367935,149.889755 160.952133,148.246811 160.138184,146.110947 
	C159.619736,144.750473 160.164871,142.984680 160.233124,141.400635 
	C161.372803,142.340179 162.903214,143.059677 163.579376,144.260269 
	C165.661377,147.957077 167.416809,151.837799 168.763947,154.563965 
	C172.701675,156.010315 175.948227,156.946518 178.824387,158.547943 
	C179.234604,158.776352 178.434341,163.128845 177.149872,163.961578 
	C175.513000,165.022736 172.812866,164.443802 169.999283,164.604523 
	C169.999283,165.767075 169.999283,167.986679 169.996765,170.632874 
z"/>
<path fill="#12A19A" opacity="1.000000" stroke="none" 
	d="
M143.124512,172.909576 
	C142.445328,167.255615 142.203171,161.669220 142.010620,156.081100 
	C141.943832,154.142700 142.000000,152.200043 142.000000,149.340530 
	C130.694473,154.877197 133.603058,165.268936 132.698792,174.902893 
	C128.555588,169.705917 129.510284,157.200027 133.523361,150.224304 
	C132.409256,150.051865 131.339218,149.886246 129.879120,149.660263 
	C130.057465,146.739319 130.227386,143.956223 130.397293,141.173126 
	C130.961578,141.150879 131.525864,141.128647 132.090149,141.106415 
	C132.529282,142.911636 132.968414,144.716858 133.522400,146.994186 
	C137.337799,146.994186 141.427185,146.994186 145.837280,146.994186 
	C145.837280,154.346283 145.837280,161.276855 145.837280,168.564819 
	C146.818329,168.743530 147.674042,168.681198 148.248795,169.053085 
	C149.213409,169.677261 149.999146,170.577896 150.860138,171.362213 
	C149.930267,171.905594 149.053802,172.740814 148.057846,172.923096 
	C146.610779,173.187927 145.077530,172.981766 143.124512,172.909576 
z"/>
<path fill="#FFFFFF" opacity="1.000000" stroke="none" 
	d="
M137.000000,10.000000 
	C147.817429,10.000004 158.134888,9.990421 168.452301,10.003473 
	C175.023590,10.011786 179.881165,14.305481 179.999649,20.171103 
	C180.119980,26.127977 175.516174,30.919388 169.082336,30.957657 
	C149.616623,31.073444 130.149780,30.999506 110.189491,30.999506 
	C113.908150,23.950897 114.039391,17.062956 110.118729,10.000000 
	C119.220734,10.000000 127.860367,10.000000 137.000000,10.000000 
z"/>
<path fill="#FFFFFF" opacity="1.000000" stroke="none" 
	d="
M15.537224,228.181946 
	C17.324230,227.674973 18.730656,227.048630 20.139168,227.043915 
	C39.427593,226.979202 58.716312,227.000305 77.936409,227.000305 
	C77.936409,233.836121 77.936409,240.581451 77.936409,247.792236 
	C77.899376,247.796371 76.991112,247.985474 76.082664,247.986359 
	C57.954819,248.003891 39.826832,248.037659 21.699141,247.981842 
	C14.113702,247.958481 9.240126,243.234985 10.219481,235.997162 
	C10.587722,233.275726 13.438568,230.890244 15.537224,228.181946 
z"/>
</svg>