<svg version="1.1" id="Layer_1" xmlns="http://www.w3.org/2000/svg" xmlns:xlink="http://www.w3.org/1999/xlink" x="0px" y="0px"
	 width="100%" viewBox="0 0 312 112" enable-background="new 0 0 312 112" xml:space="preserve">
<path fill="#FFFFFF" opacity="1.000000" stroke="none" 
	d="
M241.000000,113.000000 
	C160.666687,113.000000 80.833382,113.000000 1.000054,113.000000 
	C1.000036,75.666702 1.000036,38.333405 1.000018,1.000079 
	C104.999939,1.000052 208.999878,1.000052 312.999878,1.000026 
	C312.999908,38.333256 312.999908,75.666512 312.999939,112.999886 
	C289.166656,113.000000 265.333344,113.000000 241.000000,113.000000 
M192.000000,72.793831 
	C192.000000,71.063766 192.000000,69.333710 192.000000,67.603645 
	C196.312378,74.493736 199.708679,81.603302 203.291901,88.617378 
	C203.963974,89.932938 205.349899,91.788284 206.463074,91.828575 
	C214.214493,92.109108 221.980850,91.976761 229.640030,91.976761 
	C229.640030,64.961426 229.640030,38.575737 229.640030,12.230558 
	C225.669052,12.230558 222.060257,12.230558 217.946106,12.230558 
	C217.946106,38.103001 217.946106,63.751026 217.946106,89.399055 
	C211.675232,78.531151 206.534195,67.356735 200.892731,56.440968 
	C198.614624,52.033016 199.474533,48.677578 201.624252,44.623844 
	C205.743973,36.855228 209.358658,28.811689 212.985718,20.793024 
	C214.141632,18.237509 214.673508,15.399729 215.632187,12.223061 
	C210.879120,12.223061 207.099548,12.223061 203.682983,12.223061 
	C200.113068,19.882658 196.655457,27.301331 193.197830,34.720001 
	C192.793991,34.615475 192.390167,34.510944 191.986328,34.406418 
	C191.986328,27.060839 191.986328,19.715261 191.986328,12.312519 
	C187.739548,12.312519 184.016678,12.312519 180.347046,12.312519 
	C180.347046,39.011929 180.347046,65.397331 180.347046,91.603424 
	C184.430267,91.603424 188.152283,91.603424 192.000000,91.603424 
	C192.000000,85.379814 192.000000,79.552277 192.000000,72.793831 
M58.015484,56.447975 
	C58.041061,56.283466 58.044582,56.111122 58.099327,55.956970 
	C58.141609,55.837902 58.248108,55.741638 58.326054,55.635235 
	C58.902626,56.453613 59.695770,57.194061 60.022610,58.102306 
	C63.703617,68.331291 67.220169,78.621017 71.052399,88.792137 
	C71.564323,90.150848 73.464394,91.612976 74.918350,91.857498 
	C77.781258,92.338974 80.782265,91.999313 84.278717,91.999313 
	C80.007706,79.816330 75.945595,68.229233 71.870049,56.603809 
	C81.527649,54.850506 81.999763,54.264378 81.999969,44.329834 
	C82.000122,36.835766 82.034691,29.341488 81.989082,21.847698 
	C81.951706,15.707160 79.627556,12.477378 73.565399,12.152794 
	C64.497719,11.667284 55.384796,12.026662 46.334961,12.026662 
	C46.334961,39.001213 46.334961,65.379349 46.334961,91.617424 
	C50.400467,91.617424 54.123558,91.617424 58.001560,91.617424 
	C58.001560,79.918076 58.001560,68.600746 58.015484,56.447975 
M307.000000,66.499832 
	C307.000000,51.346996 306.988800,36.194145 307.006989,21.041334 
	C307.012268,16.653061 305.991730,13.106186 300.681366,12.902164 
	C293.105621,12.611109 285.505859,11.883869 277.960236,12.249376 
	C273.030884,12.488153 270.087280,16.247015 270.056641,21.266560 
	C269.929565,42.080128 269.809875,62.897942 270.134796,83.707214 
	C270.219482,89.130333 272.823944,92.592178 279.180969,92.111664 
	C285.803711,91.611069 292.493713,92.005836 299.154297,91.998253 
	C305.109924,91.991478 306.955200,90.124275 306.992889,83.984612 
	C307.026642,78.489830 307.000000,72.994682 307.000000,66.499832 
M123.985703,89.681648 
	C123.710327,88.915482 123.313034,88.170258 123.177330,87.380104 
	C119.432648,65.575996 115.573906,43.789993 112.054749,21.949318 
	C110.433296,11.886232 110.738480,11.834707 100.437416,12.056717 
	C100.126938,12.063409 99.820053,12.236874 99.188812,12.432675 
	C94.496162,38.650425 89.778252,65.009308 85.001999,91.694191 
	C89.041252,91.694191 92.912148,91.694191 96.648270,91.694191 
	C97.599419,86.329880 98.500534,81.247719 99.394913,76.203590 
	C102.993866,76.203590 106.271980,76.203590 109.637894,76.203590 
	C110.556175,81.466774 111.443184,86.550705 112.497406,92.592995 
	C116.397697,91.906982 120.184586,91.240921 123.985703,89.681648 
M29.998604,83.558914 
	C30.434174,86.264908 30.869743,88.970894 31.315968,91.743073 
	C35.270931,91.743073 39.026279,91.743073 42.731369,91.743073 
	C42.845325,91.165291 43.010147,90.826218 42.957657,90.525017 
	C38.881779,67.136009 34.942444,43.721519 30.617649,20.378458 
	C29.005619,11.677549 28.593403,11.750756 19.280838,12.072744 
	C18.976582,12.083264 18.679464,12.300264 18.174540,12.503194 
	C13.474639,38.763313 8.755678,65.129921 3.988759,91.764503 
	C7.978181,91.764503 11.739726,91.764503 15.608031,91.764503 
	C16.566618,86.451195 17.504721,81.251419 18.407030,76.250053 
	C22.123325,76.250053 25.402836,76.250053 28.509960,76.250053 
	C29.045172,78.575096 29.516821,80.624016 29.998604,83.558914 
M123.000290,19.385260 
	C122.565102,22.154308 123.591728,23.308737 126.521858,23.050959 
	C129.259949,22.810072 132.035904,22.999441 135.280869,22.999441 
	C135.280869,46.423294 135.280869,69.149963 135.280869,91.734024 
	C139.404526,91.734024 143.013596,91.734024 147.114670,91.734024 
	C147.114670,68.743622 147.114670,46.013481 147.114670,22.788898 
	C151.016754,22.788898 154.420700,22.788898 157.772888,22.788898 
	C157.772888,19.007641 157.772888,15.732450 157.772888,12.274288 
	C146.151917,12.274288 134.759140,12.274288 123.000015,12.274288 
	C123.000015,14.504085 123.000015,16.473057 123.000290,19.385260 
M237.000000,43.500000 
	C237.000000,59.573418 237.000000,75.646835 237.000000,91.650993 
	C247.026871,91.650993 256.412262,91.650993 265.604919,91.650993 
	C265.604919,87.906044 265.604919,84.517708 265.604919,80.815132 
	C259.940491,80.815132 254.669281,80.815132 248.937775,80.815132 
	C248.937775,57.786674 248.937775,35.081078 248.937775,12.311110 
	C244.736572,12.311110 241.016434,12.311110 237.000000,12.311110 
	C237.000000,22.579741 237.000000,32.539871 237.000000,43.500000 
z"/>
<path fill="#12A19A" opacity="1.000000" stroke="none" 
	d="
M192.000000,73.259285 
	C192.000000,79.552277 192.000000,85.379814 192.000000,91.603424 
	C188.152283,91.603424 184.430267,91.603424 180.347046,91.603424 
	C180.347046,65.397331 180.347046,39.011929 180.347046,12.312519 
	C184.016678,12.312519 187.739548,12.312519 191.986328,12.312519 
	C191.986328,19.715261 191.986328,27.060839 191.986328,34.406418 
	C192.390167,34.510944 192.793991,34.615475 193.197830,34.720001 
	C196.655457,27.301331 200.113068,19.882658 203.682983,12.223061 
	C207.099548,12.223061 210.879120,12.223061 215.632187,12.223061 
	C214.673508,15.399729 214.141632,18.237509 212.985718,20.793024 
	C209.358658,28.811689 205.743973,36.855228 201.624252,44.623844 
	C199.474533,48.677578 198.614624,52.033016 200.892731,56.440968 
	C206.534195,67.356735 211.675232,78.531151 217.946106,89.399055 
	C217.946106,63.751026 217.946106,38.103001 217.946106,12.230558 
	C222.060257,12.230558 225.669052,12.230558 229.640030,12.230558 
	C229.640030,38.575737 229.640030,64.961426 229.640030,91.976761 
	C221.980850,91.976761 214.214493,92.109108 206.463074,91.828575 
	C205.349899,91.788284 203.963974,89.932938 203.291901,88.617378 
	C199.708679,81.603302 196.312378,74.493736 192.000000,67.603645 
	C192.000000,69.333710 192.000000,71.063766 192.000000,73.259285 
z"/>
<path fill="#12A19A" opacity="1.000000" stroke="none" 
	d="
M58.008522,56.865692 
	C58.001560,68.600746 58.001560,79.918076 58.001560,91.617424 
	C54.123558,91.617424 50.400467,91.617424 46.334961,91.617424 
	C46.334961,65.379349 46.334961,39.001213 46.334961,12.026662 
	C55.384796,12.026662 64.497719,11.667284 73.565399,12.152794 
	C79.627556,12.477378 81.951706,15.707160 81.989082,21.847698 
	C82.034691,29.341488 82.000122,36.835766 81.999969,44.329834 
	C81.999763,54.264378 81.527649,54.850506 71.870049,56.603809 
	C75.945595,68.229233 80.007706,79.816330 84.278717,91.999313 
	C80.782265,91.999313 77.781258,92.338974 74.918350,91.857498 
	C73.464394,91.612976 71.564323,90.150848 71.052399,88.792137 
	C67.220169,78.621017 63.703617,68.331291 60.022610,58.102306 
	C59.695770,57.194061 58.902626,56.453613 58.326054,55.635235 
	C58.248108,55.741638 58.141609,55.837902 58.099327,55.956970 
	C58.044582,56.111122 58.041061,56.283466 58.008522,56.865692 
M69.997826,25.718756 
	C69.202560,24.814919 68.479660,23.224426 67.598938,23.131620 
	C64.541519,22.809446 61.429298,23.007244 58.242874,23.007244 
	C58.242874,30.919140 58.242874,38.272598 58.242874,45.041832 
	C62.198215,45.041832 65.917297,45.041832 69.999756,45.041832 
	C69.999756,38.539452 69.999756,32.611443 69.997826,25.718756 
z"/>
<path fill="#12A19A" opacity="1.000000" stroke="none" 
	d="
M307.000000,66.999763 
	C307.000000,72.994682 307.026642,78.489830 306.992889,83.984612 
	C306.955200,90.124275 305.109924,91.991478 299.154297,91.998253 
	C292.493713,92.005836 285.803711,91.611069 279.180969,92.111664 
	C272.823944,92.592178 270.219482,89.130333 270.134796,83.707214 
	C269.809875,62.897942 269.929565,42.080128 270.056641,21.266560 
	C270.087280,16.247015 273.030884,12.488153 277.960236,12.249376 
	C285.505859,11.883869 293.105621,12.611109 300.681366,12.902164 
	C305.991730,13.106186 307.012268,16.653061 307.006989,21.041334 
	C306.988800,36.194145 307.000000,51.346996 307.000000,66.999763 
M295.000000,60.499805 
	C295.000000,48.076633 295.000000,35.653458 295.000000,23.387043 
	C290.258148,23.387043 286.200134,23.387043 282.251007,23.387043 
	C282.251007,42.710732 282.251007,61.646427 282.251007,80.702179 
	C286.562958,80.702179 290.618896,80.702179 295.000000,80.702179 
	C295.000000,74.105804 295.000000,67.802689 295.000000,60.499805 
z"/>
<path fill="#12A19A" opacity="1.000000" stroke="none" 
	d="
M123.978584,90.128250 
	C120.184586,91.240921 116.397697,91.906982 112.497406,92.592995 
	C111.443184,86.550705 110.556175,81.466774 109.637894,76.203590 
	C106.271980,76.203590 102.993866,76.203590 99.394913,76.203590 
	C98.500534,81.247719 97.599419,86.329880 96.648270,91.694191 
	C92.912148,91.694191 89.041252,91.694191 85.001999,91.694191 
	C89.778252,65.009308 94.496162,38.650425 99.188812,12.432675 
	C99.820053,12.236874 100.126938,12.063409 100.437416,12.056717 
	C110.738480,11.834707 110.433296,11.886232 112.054749,21.949318 
	C115.573906,43.789993 119.432648,65.575996 123.177330,87.380104 
	C123.313034,88.170258 123.710327,88.915482 123.978584,90.128250 
M102.754410,64.987610 
	C104.464836,64.987610 106.175255,64.987610 108.133293,64.987610 
	C107.040359,59.190342 106.098839,54.196220 105.157318,49.202095 
	C104.526649,49.224815 103.895981,49.247536 103.265305,49.270256 
	C102.805649,54.484398 102.345993,59.698544 102.754410,64.987610 
z"/>
<path fill="#12A19A" opacity="1.000000" stroke="none" 
	d="
M29.993538,83.115929 
	C29.516821,80.624016 29.045172,78.575096 28.509960,76.250053 
	C25.402836,76.250053 22.123325,76.250053 18.407030,76.250053 
	C17.504721,81.251419 16.566618,86.451195 15.608031,91.764503 
	C11.739726,91.764503 7.978181,91.764503 3.988759,91.764503 
	C8.755678,65.129921 13.474639,38.763313 18.174540,12.503194 
	C18.679464,12.300264 18.976582,12.083264 19.280838,12.072744 
	C28.593403,11.750756 29.005619,11.677549 30.617649,20.378458 
	C34.942444,43.721519 38.881779,67.136009 42.957657,90.525017 
	C43.010147,90.826218 42.845325,91.165291 42.731369,91.743073 
	C39.026279,91.743073 35.270931,91.743073 31.315968,91.743073 
	C30.869743,88.970894 30.434174,86.264908 29.993538,83.115929 
M22.000223,52.776608 
	C21.368237,56.700794 20.736248,60.624981 20.096992,64.594299 
	C22.570620,64.594299 24.732330,64.594299 27.001265,64.594299 
	C26.041037,59.178989 25.155708,54.186081 24.270380,49.193176 
	C23.904600,49.175251 23.538820,49.157326 23.173042,49.139400 
	C22.783543,50.072624 22.394043,51.005844 22.000223,52.776608 
z"/>
<path fill="#12A19A" opacity="1.000000" stroke="none" 
	d="
M123.000153,18.913643 
	C123.000015,16.473057 123.000015,14.504085 123.000015,12.274288 
	C134.759140,12.274288 146.151917,12.274288 157.772888,12.274288 
	C157.772888,15.732450 157.772888,19.007641 157.772888,22.788898 
	C154.420700,22.788898 151.016754,22.788898 147.114670,22.788898 
	C147.114670,46.013481 147.114670,68.743622 147.114670,91.734024 
	C143.013596,91.734024 139.404526,91.734024 135.280869,91.734024 
	C135.280869,69.149963 135.280869,46.423294 135.280869,22.999441 
	C132.035904,22.999441 129.259949,22.810072 126.521858,23.050959 
	C123.591728,23.308737 122.565102,22.154308 123.000153,18.913643 
z"/>
<path fill="#12A19A" opacity="1.000000" stroke="none" 
	d="
M237.000000,43.000000 
	C237.000000,32.539871 237.000000,22.579741 237.000000,12.311110 
	C241.016434,12.311110 244.736572,12.311110 248.937775,12.311110 
	C248.937775,35.081078 248.937775,57.786674 248.937775,80.815132 
	C254.669281,80.815132 259.940491,80.815132 265.604919,80.815132 
	C265.604919,84.517708 265.604919,87.906044 265.604919,91.650993 
	C256.412262,91.650993 247.026871,91.650993 237.000000,91.650993 
	C237.000000,75.646835 237.000000,59.573418 237.000000,43.000000 
z"/>
<path fill="#FFFFFF" opacity="1.000000" stroke="none" 
	d="
M69.998795,26.201096 
	C69.999756,32.611443 69.999756,38.539452 69.999756,45.041832 
	C65.917297,45.041832 62.198215,45.041832 58.242874,45.041832 
	C58.242874,38.272598 58.242874,30.919140 58.242874,23.007244 
	C61.429298,23.007244 64.541519,22.809446 67.598938,23.131620 
	C68.479660,23.224426 69.202560,24.814919 69.998795,26.201096 
z"/>
<path fill="#FFFFFF" opacity="1.000000" stroke="none" 
	d="
M295.000000,60.999695 
	C295.000000,67.802689 295.000000,74.105804 295.000000,80.702179 
	C290.618896,80.702179 286.562958,80.702179 282.251007,80.702179 
	C282.251007,61.646427 282.251007,42.710732 282.251007,23.387043 
	C286.200134,23.387043 290.258148,23.387043 295.000000,23.387043 
	C295.000000,35.653458 295.000000,48.076633 295.000000,60.999695 
z"/>
<path fill="#FFFFFF" opacity="1.000000" stroke="none" 
	d="
M102.320374,64.950150 
	C102.345993,59.698544 102.805649,54.484398 103.265305,49.270256 
	C103.895981,49.247536 104.526649,49.224815 105.157318,49.202095 
	C106.098839,54.196220 107.040359,59.190342 108.133293,64.987610 
	C106.175255,64.987610 104.464836,64.987610 102.320374,64.950150 
z"/>
<path fill="#FFFFFF" opacity="1.000000" stroke="none" 
	d="
M22.002384,52.357838 
	C22.394043,51.005844 22.783543,50.072624 23.173042,49.139400 
	C23.538820,49.157326 23.904600,49.175251 24.270380,49.193176 
	C25.155708,54.186081 26.041037,59.178989 27.001265,64.594299 
	C24.732330,64.594299 22.570620,64.594299 20.096992,64.594299 
	C20.736248,60.624981 21.368237,56.700794 22.002384,52.357838 
z"/>
</svg>